<svg width="28" height="28" viewBox="0 0 28 28" fill="none" xmlns="http://www.w3.org/2000/svg">
<path d="M21.6034 14.9094L22.3462 15.0128L22.3462 15.0128L21.6034 14.9094ZM21.2973 17.1086L22.0401 17.212L22.0401 17.212L21.2973 17.1086ZM6.70262 17.1087L7.44546 17.0053L7.44546 17.0053L6.70262 17.1087ZM6.39656 14.9095L5.65372 15.0128L5.65372 15.0128L6.39656 14.9095ZM10.7142 25.3597L10.4226 26.0507L10.4226 26.0507L10.7142 25.3597ZM7.55422 21.6538L8.25821 21.3951L8.25821 21.3951L7.55422 21.6538ZM20.4457 21.6538L21.1497 21.9124L21.1497 21.9124L20.4457 21.6538ZM17.2857 25.3597L16.9941 24.6687L16.9941 24.6687L17.2857 25.3597ZM6.57993 10.4291C6.54075 10.0167 6.17471 9.71422 5.76235 9.7534C5.35 9.79258 5.04748 10.1586 5.08666 10.571L6.57993 10.4291ZM22.9133 10.571C22.9524 10.1586 22.6499 9.79258 22.2376 9.7534C21.8252 9.71422 21.4592 10.0167 21.42 10.4291L22.9133 10.571ZM23.3333 8.91671C23.7475 8.91671 24.0833 8.58092 24.0833 8.16671C24.0833 7.75249 23.7475 7.41671 23.3333 7.41671V8.91671ZM4.66663 7.41671C4.25241 7.41671 3.91663 7.75249 3.91663 8.16671C3.91663 8.58092 4.25241 8.91671 4.66663 8.91671V7.41671ZM10.9166 21C10.9166 21.4143 11.2524 21.75 11.6666 21.75C12.0808 21.75 12.4166 21.4143 12.4166 21H10.9166ZM12.4166 11.6667C12.4166 11.2525 12.0808 10.9167 11.6666 10.9167C11.2524 10.9167 10.9166 11.2525 10.9166 11.6667H12.4166ZM15.5833 21C15.5833 21.4143 15.9191 21.75 16.3333 21.75C16.7475 21.75 17.0833 21.4143 17.0833 21H15.5833ZM17.0833 11.6667C17.0833 11.2525 16.7475 10.9167 16.3333 10.9167C15.9191 10.9167 15.5833 11.2525 15.5833 11.6667H17.0833ZM18.6666 8.16671V8.91671H19.4166V8.16671H18.6666ZM9.33329 8.16671H8.58329V8.91671H9.33329V8.16671ZM20.8605 14.8061L20.5545 17.0053L22.0401 17.212L22.3462 15.0128L20.8605 14.8061ZM7.44546 17.0053L7.1394 14.8061L5.65372 15.0128L5.95978 17.212L7.44546 17.0053ZM14 24.9167C12.2272 24.9167 11.5599 24.9025 11.0058 24.6687L10.4226 26.0507C11.3237 26.4309 12.3619 26.4167 14 26.4167V24.9167ZM5.95978 17.212C6.287 19.5633 6.46283 20.858 6.85023 21.9124L8.25821 21.3951C7.94032 20.5299 7.78351 19.4343 7.44546 17.0053L5.95978 17.212ZM11.0058 24.6687C9.88899 24.1974 8.86831 23.0557 8.25821 21.3951L6.85023 21.9124C7.55905 23.8416 8.81825 25.3736 10.4226 26.0507L11.0058 24.6687ZM20.5545 17.0053C20.2164 19.4343 20.0596 20.5299 19.7417 21.3951L21.1497 21.9124C21.5371 20.858 21.7129 19.5633 22.0401 17.212L20.5545 17.0053ZM14 26.4167C15.638 26.4167 16.6763 26.4309 17.5773 26.0507L16.9941 24.6687C16.44 24.9025 15.7728 24.9167 14 24.9167V26.4167ZM19.7417 21.3951C19.1316 23.0557 18.1109 24.1974 16.9941 24.6687L17.5773 26.0507C19.1817 25.3737 20.4409 23.8416 21.1497 21.9124L19.7417 21.3951ZM7.1394 14.8061C6.8804 12.945 6.68644 11.5501 6.57993 10.4291L5.08666 10.571C5.19697 11.732 5.3965 13.1646 5.65372 15.0128L7.1394 14.8061ZM22.3462 15.0128C22.6034 13.1645 22.803 11.732 22.9133 10.571L21.42 10.4291C21.3135 11.5501 21.1195 12.945 20.8605 14.8061L22.3462 15.0128ZM23.3333 7.41671H4.66663V8.91671H23.3333V7.41671ZM12.4166 21V11.6667H10.9166V21H12.4166ZM17.0833 21V11.6667H15.5833V21H17.0833ZM17.9166 7.00004V8.16671H19.4166V7.00004H17.9166ZM18.6666 7.41671H9.33329V8.91671H18.6666V7.41671ZM10.0833 8.16671V7.00004H8.58329V8.16671H10.0833ZM14 3.08337C16.1631 3.08337 17.9166 4.83693 17.9166 7.00004H19.4166C19.4166 4.0085 16.9915 1.58337 14 1.58337V3.08337ZM14 1.58337C11.0084 1.58337 8.58329 4.0085 8.58329 7.00004H10.0833C10.0833 4.83693 11.8368 3.08337 14 3.08337V1.58337Z" fill="#F4F4F5"/>
</svg>
