<svg width="28" height="28" viewBox="0 0 28 28" fill="none" xmlns="http://www.w3.org/2000/svg">
<path d="M4.73796 23.5858L5.1788 22.9791L5.1788 22.9791L4.73796 23.5858ZM3.44744 22.2953L2.84068 22.7362L2.84068 22.7362L3.44744 22.2953ZM20.9288 23.5858L20.4879 22.9791L20.4879 22.9791L20.9288 23.5858ZM22.2193 22.2953L21.6125 21.8545L21.6125 21.8545L22.2193 22.2953ZM3.44744 6.10449L2.84068 5.66365L2.84068 5.66365L3.44744 6.10449ZM4.73796 4.81397L5.1788 5.42073L5.1788 5.42073L4.73796 4.81397ZM10.509 4.45826C10.9232 4.45329 11.255 4.1135 11.25 3.69932C11.245 3.28514 10.9052 2.9534 10.4911 2.95836L10.509 4.45826ZM24.0749 16.5422C24.0799 16.128 23.7481 15.7883 23.334 15.7833C22.9198 15.7783 22.58 16.1101 22.575 16.5242L24.0749 16.5422ZM13.7639 18.8718L13.681 18.1263L13.7639 18.8718ZM8.95744 18.5247L8.42711 19.055L8.42711 19.055L8.95744 18.5247ZM8.61039 13.7183L9.3558 13.8011L8.61039 13.7183ZM9.94868 10.9338L9.41835 10.4035L9.41835 10.4035L9.94868 10.9338ZM8.91679 12.1517L8.24082 11.8268L8.24082 11.8268L8.91679 12.1517ZM16.5483 17.5335L17.0787 18.0638L17.0787 18.0638L16.5483 17.5335ZM15.3304 18.5654L15.6553 19.2413L15.6553 19.2413L15.3304 18.5654ZM12.8334 23.9499C10.6293 23.9499 9.03653 23.9489 7.80096 23.815C6.57943 23.6827 5.79633 23.4277 5.1788 22.9791L4.29712 24.1926C5.21297 24.858 6.29024 25.1601 7.63939 25.3063C8.97451 25.4509 10.6627 25.4499 12.8334 25.4499V23.9499ZM1.58337 14.1999C1.58337 16.3705 1.58234 18.0588 1.727 19.3939C1.87317 20.743 2.17527 21.8203 2.84068 22.7362L4.0542 21.8545C3.60554 21.2369 3.35061 20.4538 3.21827 19.2323C3.0844 17.9967 3.08337 16.404 3.08337 14.1999H1.58337ZM5.1788 22.9791C4.74725 22.6655 4.36774 22.286 4.0542 21.8545L2.84068 22.7362C3.24674 23.295 3.73823 23.7865 4.29712 24.1926L5.1788 22.9791ZM12.8334 25.4499C15.004 25.4499 16.6922 25.4509 18.0274 25.3063C19.3765 25.1601 20.4538 24.858 21.3696 24.1926L20.4879 22.9791C19.8704 23.4277 19.0873 23.6827 17.8658 23.815C16.6302 23.9489 15.0374 23.9499 12.8334 23.9499V25.4499ZM21.6125 21.8545C21.299 22.286 20.9195 22.6655 20.4879 22.9791L21.3696 24.1926C21.9285 23.7865 22.42 23.295 22.8261 22.7362L21.6125 21.8545ZM3.08337 14.1999C3.08337 11.9959 3.0844 10.4031 3.21827 9.16749C3.35061 7.94596 3.60554 7.16286 4.0542 6.54533L2.84068 5.66365C2.17527 6.5795 1.87317 7.65677 1.727 9.00592C1.58234 10.341 1.58337 12.0293 1.58337 14.1999H3.08337ZM4.29712 4.20721C3.73823 4.61327 3.24674 5.10476 2.84068 5.66365L4.0542 6.54533C4.36774 6.11378 4.74725 5.73427 5.1788 5.42073L4.29712 4.20721ZM10.4911 2.95836C7.65392 2.99237 5.75191 3.15024 4.29712 4.20721L5.1788 5.42073C6.18924 4.6866 7.59762 4.49316 10.509 4.45826L10.4911 2.95836ZM22.575 16.5242C22.5401 19.4357 22.3467 20.844 21.6125 21.8545L22.8261 22.7362C23.883 21.2814 24.0409 19.3794 24.0749 16.5422L22.575 16.5242ZM22.2851 10.736L16.018 17.0031L17.0787 18.0638L23.3458 11.7967L22.2851 10.736ZM10.479 11.4641L16.7461 5.19704L15.6855 4.13638L9.41835 10.4035L10.479 11.4641ZM13.681 18.1263C12.3199 18.2776 11.3803 18.3801 10.6789 18.3575C9.99758 18.3355 9.69073 18.1973 9.48777 17.9944L8.42711 19.055C9.01715 19.6451 9.77569 19.8291 10.6305 19.8567C11.4651 19.8837 12.5322 19.7632 13.8467 19.6172L13.681 18.1263ZM7.86497 13.6355C7.71892 14.95 7.5985 16.017 7.62545 16.8517C7.65305 17.7065 7.83708 18.465 8.42711 19.055L9.48777 17.9944C9.28482 17.7914 9.14667 17.4846 9.12467 16.8033C9.10202 16.1019 9.20457 15.1622 9.3558 13.8011L7.86497 13.6355ZM9.41835 10.4035C8.88134 10.9405 8.48107 11.327 8.24082 11.8268L9.59277 12.4766C9.6968 12.2602 9.86969 12.0735 10.479 11.4641L9.41835 10.4035ZM9.3558 13.8011C9.45096 12.9447 9.48874 12.693 9.59277 12.4766L8.24082 11.8268C8.00057 12.3267 7.94884 12.8807 7.86497 13.6355L9.3558 13.8011ZM16.018 17.0031C15.4087 17.6125 15.222 17.7854 15.0055 17.8894L15.6553 19.2413C16.1552 19.0011 16.5417 18.6008 17.0787 18.0638L16.018 17.0031ZM13.8467 19.6172C14.6015 19.5333 15.1555 19.4816 15.6553 19.2413L15.0055 17.8894C14.7891 17.9934 14.5375 18.0312 13.681 18.1263L13.8467 19.6172ZM22.2851 5.19704C23.0779 5.98981 23.618 6.53216 23.9692 6.99245C24.3072 7.43544 24.3988 7.71321 24.3988 7.96654H25.8988C25.8988 7.25337 25.6015 6.659 25.1617 6.08258C24.7351 5.52348 24.1086 4.89916 23.3458 4.13638L22.2851 5.19704ZM23.3458 11.7967C24.1086 11.0339 24.7351 10.4096 25.1617 9.85049C25.6015 9.27408 25.8988 8.67971 25.8988 7.96654H24.3988C24.3988 8.21987 24.3072 8.49763 23.9692 8.94062C23.618 9.40092 23.0779 9.94327 22.2851 10.736L23.3458 11.7967ZM23.3458 4.13638C22.583 3.37359 21.9587 2.74703 21.3996 2.32044C20.8232 1.88065 20.2288 1.58337 19.5156 1.58337V3.08337C19.7689 3.08337 20.0467 3.17499 20.4897 3.51297C20.95 3.86417 21.4923 4.40427 22.2851 5.19704L23.3458 4.13638ZM16.7461 5.19704C17.5389 4.40427 18.0812 3.86417 18.5415 3.51297C18.9845 3.17499 19.2623 3.08337 19.5156 3.08337V1.58337C18.8024 1.58337 18.2081 1.88065 17.6317 2.32044C17.0725 2.74703 16.4482 3.37359 15.6855 4.13638L16.7461 5.19704ZM23.3458 10.736L16.7461 4.13638L15.6855 5.19704L22.2851 11.7967L23.3458 10.736Z" fill="#F4F4F5"/>
</svg>
